PathFileType	4	(X/Y/Z)	D:\TRACE\spotREDO_2-26-24\spot_justBody_Motion_3_3-v60.trc
DataRate	CameraRate	NumFrames	NumMarkers	Units	OrigDataRate	OrigDataStartFrame	OrigNumFrames
100.00	100.00	      20	9	mm	100.00	2626	      7000
Frame#	Time	front left toe			Front right toe			aft left toe			aft right toe			Arm			FL body			FR body			AL Body			AR Body			
		X1	Y1	Z1	X2	Y2	Z2	X3	Y3	Z3	X4	Y4	Z4	X5	Y5	Z5	X6	Y6	Z6	X7	Y7	Z7	X8	Y8	Z8	X9	Y9	Z9	

2626	26.250	-354.39606	26.48567	-107.67457	110.89735	29.70793	-170.96684	-295.87021	6.59517	335.97202	162.23418	13.80034	270.47119	-146.84807	832.41937	-326.99100	-228.42329	572.15613	-307.04266	-73.48151	576.39893	-330.56775	-100.41226	529.81122	566.84991	39.89040	534.05981	547.51837	
2627	26.260	-354.10611	26.23647	-107.90670	111.23705	29.40342	-171.19792	-295.66528	7.38012	335.77451	162.37471	14.19456	270.25266	-146.54291	832.41907	-326.66891	-227.76237	571.96057	-306.43808	-73.12576	576.34033	-330.06555	-99.83829	530.22528	567.47443	40.28152	534.71729	548.18665	
2628	26.270	-353.73984	25.84454	-108.17301	111.52558	29.12158	-171.19279	-295.34778	7.88708	335.61990	162.82034	14.56081	270.09375	-145.76144	832.20557	-326.06366	-227.21793	572.00146	-305.77664	-72.69352	576.14441	-329.49783	-99.53213	530.87817	568.07440	40.70883	535.15088	548.92804	
2629	26.280	-353.99246	26.38571	-107.61070	111.79877	28.78663	-171.51364	-294.89868	8.10000	335.51538	163.32072	14.89005	269.93643	-145.16171	832.16864	-325.65112	-226.83597	571.82690	-305.05978	-72.00600	575.97675	-328.79987	-98.98458	531.20776	568.86267	41.00835	535.41199	549.45825	
2630	26.290	-353.54800	26.21278	-107.74184	112.22145	28.51591	-171.85307	-294.50439	8.52636	335.32138	163.63066	15.34235	269.89948	-144.46741	832.10840	-325.18921	-226.06648	571.61993	-304.28989	-71.39938	575.94482	-328.18323	-98.44890	531.44318	569.51636	41.64672	535.65295	550.06067	
2631	26.300	-353.47763	26.31801	-107.84692	112.64153	28.26033	-171.93852	-294.08145	8.95668	335.24066	163.96263	15.71355	269.73981	-143.77596	831.95660	-324.42416	-225.44522	571.56122	-303.84644	-70.75062	575.86609	-327.55038	-97.67937	531.54150	570.05969	42.32695	536.15039	550.97186	
2632	26.310	-353.14938	26.11148	-107.98898	112.85773	27.95696	-172.12802	-293.69727	9.55137	334.96915	164.22922	15.98648	269.49490	-143.27927	831.98761	-323.91888	-224.91589	571.59351	-303.19965	-70.21915	575.84155	-326.95428	-97.13430	531.78967	570.62946	42.78844	536.44867	551.57532	
2633	26.320	-352.80975	25.89114	-108.13134	113.22682	27.59462	-172.64398	-293.40604	10.21220	334.88919	164.73282	16.31377	269.43881	-142.60802	831.70508	-323.30994	-224.36673	571.50421	-302.45703	-69.57531	575.71765	-326.23517	-96.53313	532.10461	571.59326	43.48531	536.43713	552.18286	
2634	26.330	-352.11838	25.48722	-108.41936	113.77490	27.39565	-172.51711	-293.03006	10.71837	334.73978	165.01213	16.65918	269.16324	-141.78079	831.63739	-322.76788	-223.53986	571.36932	-301.52463	-68.61658	575.37561	-325.14844	-96.00432	532.27820	572.11768	43.98515	536.75787	552.95245	
2635	26.340	-351.86224	25.37025	-108.63427	114.30772	27.16507	-172.68852	-292.73050	10.87670	334.52643	165.44797	17.06496	269.00745	-141.12076	831.66101	-322.44925	-222.96938	571.35010	-301.21536	-68.32148	575.61798	-325.05301	-95.43120	532.88733	572.87158	44.71223	536.97363	553.33948	
2636	26.350	-351.45554	25.08070	-108.88512	114.51818	26.80809	-172.79420	-292.29453	11.37831	334.34033	165.77635	17.40643	268.80789	-140.33719	831.46942	-321.71161	-222.35167	571.34113	-300.37982	-67.72336	575.43591	-324.19284	-94.81713	532.73175	573.45477	45.49485	537.15106	554.34064	
2637	26.360	-351.33188	25.02111	-109.08201	114.78751	26.42039	-172.97237	-291.91544	12.14353	334.23294	166.08719	17.93180	268.68744	-139.78693	831.35516	-321.11847	-221.85762	571.35168	-299.92511	-67.02298	575.32495	-323.55804	-94.13260	533.18451	574.14276	45.93248	537.50299	554.88623	
2638	26.370	-350.98364	24.81921	-109.31319	115.07264	25.93375	-173.03932	-291.40329	12.51621	334.29688	166.28650	18.21024	268.56769	-139.11546	831.28467	-320.63394	-220.94302	571.25415	-299.17700	-66.35841	575.17737	-322.93048	-93.30298	533.40778	574.82031	46.65659	537.49811	555.57239	
2639	26.380	-350.12869	24.32676	-109.49455	115.56254	25.80449	-173.43341	-291.06653	12.97164	334.01727	166.81342	18.47424	268.41797	-138.37230	831.23285	-320.02234	-220.28763	571.13312	-298.45267	-65.47891	575.11450	-322.13885	-92.76497	533.79608	575.40631	47.32759	537.90051	556.35455	
2640	26.390	-349.92212	24.15689	-109.58824	116.09383	25.31136	-173.79100	-290.78009	13.40632	333.91428	167.31325	19.04041	268.23203	-137.62239	831.10156	-319.67352	-219.82385	571.00061	-297.89911	-65.13258	574.86542	-321.64346	-92.15147	533.97803	576.16479	48.05722	538.37231	556.86798	
2641	26.400	-349.87454	24.14722	-109.71913	116.49674	25.19676	-173.88240	-290.42627	13.85180	333.77386	167.49802	19.35342	268.01910	-136.75514	830.86432	-319.10281	-219.09618	570.74792	-297.18823	-64.29198	574.75745	-320.85889	-91.39698	534.52020	576.98529	48.67596	538.77057	557.70117	
2642	26.410	-349.56985	23.90606	-109.91068	116.74205	24.98759	-173.98418	-290.12540	14.44669	333.47943	167.87640	19.67227	267.94882	-136.13910	830.76813	-318.72128	-218.35641	570.62103	-296.57465	-63.67880	574.50714	-320.33133	-90.74377	534.90869	577.47339	49.07539	539.03912	558.27344	
2643	26.420	-349.35672	23.85211	-110.02769	116.90369	24.66753	-174.18222	-289.78833	15.09185	333.24197	168.14546	19.93384	267.74356	-135.39941	830.68848	-318.27362	-217.70493	570.57111	-295.89935	-62.98401	574.32721	-319.73392	-90.10783	535.26984	578.11926	50.13749	539.06543	558.43976	
2644	26.430	-348.68610	23.56883	-110.23159	117.25227	24.25428	-174.41946	-289.45880	15.47951	332.99750	168.75182	20.49784	267.59903	-134.32695	830.40479	-317.57611	-217.25215	570.54071	-295.28232	-62.66430	574.13403	-318.97696	-89.55720	535.75580	578.92664	50.89444	539.68915	559.58582	
2645	26.440	-348.28320	23.51435	-110.43237	117.70937	24.09810	-174.46228	-289.13025	15.98050	332.71320	168.94405	20.92436	267.43167	-133.84482	830.27417	-317.19766	-216.34709	570.26782	-294.62189	-61.74110	573.87665	-318.46298	-88.52122	536.35956	579.55164	51.27651	540.19135	560.16766	
